<svg width="1024" height="1024" viewBox="0 0 1024 1024" fill="none" xmlns="http://www.w3.org/2000/svg">
  <rect x="32.5" y="32.5" width="959" height="959" rx="151.5" stroke="#3F3F46"/>
  <path d="M276 506C276 353.032 350.464 232 512 148" stroke="#FAFAFA" stroke-width="20" stroke-linecap="round"/>
  <path d="M276 518C276 670.968 350.464 792 512 876" stroke="#FAFAFA" stroke-width="20" stroke-linecap="round"/>
  <path d="M512 148L798 432" stroke="#FAFAFA" stroke-width="20" stroke-linecap="round"/>
  <path d="M512 876L798 592" stroke="#FAFAFA" stroke-width="20" stroke-linecap="round"/>
  <path d="M276 512H798" stroke="#FAFAFA" stroke-width="20" stroke-linecap="round"/>
  <path d="M276 512C404 512 488 448 512 148" stroke="#FAFAFA" stroke-width="20" stroke-linecap="round"/>
  <path d="M276 512C404 512 488 576 512 876" stroke="#FAFAFA" stroke-width="20" stroke-linecap="round"/>
  <circle cx="276" cy="512" r="42" fill="#FAFAFA"/>
  <circle cx="512" cy="148" r="42" fill="#FAFAFA"/>
  <circle cx="798" cy="512" r="42" fill="#FAFAFA"/>
  <circle cx="512" cy="876" r="42" fill="#FAFAFA"/>
</svg>
